# xmcd
#
# Track frame offsets:
# 150
# 15105
# 32564
# 48918
# 68974
# 86701
# 108155
# 120994
# 141051
# 158207
# 183866
# 200016
#
# Disc length: 2879 seconds
#
#
# Revision: 0
# Processed by: cddbd v1.5.2PL0 Copyright (c) Steve Scherf et al.
# Submitted via: FreeRIP 2.951 
#
DISCID=900b3d0c
DTITLE=Mãnoa DNA - No Place Like Home
DYEAR=2007
DGENRE=Crossover
TTITLE0=Down in Paradise
TTITLE1=Ka'a Ahi Kahului
TTITLE2=Before I Knew Your Name
TTITLE3=The Hurt
TTITLE4=Lifetime Party
TTITLE5=Fire and Rain
TTITLE6=No Place Like Home
TTITLE7=The Train
TTITLE8=Rainin'
TTITLE9=Ka Nohona Pili Kai/Nada Sou Sou
TTITLE10=Hualãlai
TTITLE11=Lover's Lullaby
EXTD=
EXTT0=
EXTT1=
EXTT2=
EXTT3=
EXTT4=
EXTT5=
EXTT6=
EXTT7=
EXTT8=
EXTT9=
EXTT10=
EXTT11=
PLAYORDER=
